<!--Generator: Adobe Illustrator 24.0.2, SVG Export Plug-In . SVG Version: 6.00 Build 0)-->
<svg version="1.1" id="Layer_1" xmlns="http://www.w3.org/2000/svg" x="0" y="0" viewBox="0 0 841.9 595.3" xml:space="preserve">
  <style>
    .st0{fill:#fff}
  </style>
  <path class="st0" d="M420.9 0c-80.8 0-91 .3-122.7 1.8-31.7 1.4-53.3 6.5-72.2 13.8-19.6 7.6-36.2 17.8-52.7 34.3-16.5 16.5-26.7 33.1-34.3 52.7-7.4 18.9-12.4 40.6-13.8 72.2-1.4 31.7-1.8 41.9-1.8 122.7 0 80.8.3 91 1.8 122.7 1.4 31.7 6.5 53.3 13.8 72.2 7.6 19.6 17.8 36.2 34.3 52.7 16.5 16.5 33.1 26.7 52.7 34.3 18.9 7.4 40.6 12.4 72.2 13.8 31.7 1.4 41.9 1.8 122.7 1.8 80.8 0 91-.3 122.7-1.8 31.7-1.4 53.3-6.5 72.2-13.8 19.6-7.6 36.2-17.8 52.7-34.3 16.5-16.5 26.7-33.1 34.3-52.7 7.4-18.9 12.4-40.6 13.8-72.2 1.4-31.7 1.8-41.9 1.8-122.7 0-80.8-.3-91-1.8-122.7-1.4-31.7-6.5-53.3-13.8-72.2-7.6-19.6-17.8-36.2-34.3-52.7-16.5-16.5-33.1-26.7-52.7-34.3C597 8.3 575.3 3.2 543.7 1.8 511.9.3 501.8 0 420.9 0zm0 53.6c79.5 0 88.9.3 120.3 1.7 29 1.3 44.8 6.2 55.3 10.2 13.9 5.4 23.8 11.8 34.2 22.3 10.4 10.4 16.9 20.3 22.3 34.2 4.1 10.5 8.9 26.2 10.2 55.3 1.4 31.4 1.7 40.8 1.7 120.3s-.3 88.9-1.7 120.3c-1.3 29-6.2 44.8-10.2 55.3-5.4 13.9-11.8 23.8-22.3 34.2-10.4 10.4-20.3 16.9-34.2 22.3-10.5 4.1-26.2 8.9-55.3 10.2-31.4 1.4-40.8 1.7-120.3 1.7s-88.9-.3-120.3-1.7c-29-1.3-44.8-6.2-55.3-10.2-13.9-5.4-23.8-11.8-34.2-22.3-10.4-10.4-16.9-20.3-22.3-34.2-4.1-10.5-8.9-26.2-10.2-55.3-1.4-31.4-1.7-40.8-1.7-120.3s.3-88.9 1.7-120.3c1.3-29 6.2-44.8 10.2-55.3 5.4-13.9 11.8-23.8 22.3-34.2 10.4-10.4 20.3-16.9 34.2-22.3 10.5-4.1 26.2-8.9 55.3-10.2 31.5-1.4 40.9-1.7 120.3-1.7z"/>
  <path class="st0" d="M420.9 396.8c-54.8 0-99.2-44.4-99.2-99.2 0-54.8 44.4-99.2 99.2-99.2 54.8 0 99.2 44.4 99.2 99.2.1 54.8-44.4 99.2-99.2 99.2zm0-252c-84.4 0-152.8 68.4-152.8 152.8s68.4 152.8 152.8 152.8S573.7 382 573.7 297.6c.1-84.4-68.3-152.8-152.8-152.8zM615.5 138.8c0 19.7-16 35.7-35.7 35.7-19.7 0-35.7-16-35.7-35.7 0-19.7 16-35.7 35.7-35.7 19.7-.1 35.7 15.9 35.7 35.7z"/>
</svg>
