<?xml version="1.0" encoding="utf-8"?>
<!-- Generator: Adobe Illustrator 24.0.2, SVG Export Plug-In . SVG Version: 6.00 Build 0)  -->
<!DOCTYPE svg PUBLIC "-//W3C//DTD SVG 1.1//EN" "http://www.w3.org/Graphics/SVG/1.1/DTD/svg11.dtd" [
	<!ENTITY ns_extend "http://ns.adobe.com/Extensibility/1.0/">
	<!ENTITY ns_ai "http://ns.adobe.com/AdobeIllustrator/10.0/">
	<!ENTITY ns_graphs "http://ns.adobe.com/Graphs/1.0/">
	<!ENTITY ns_vars "http://ns.adobe.com/Variables/1.0/">
	<!ENTITY ns_imrep "http://ns.adobe.com/ImageReplacement/1.0/">
	<!ENTITY ns_sfw "http://ns.adobe.com/SaveForWeb/1.0/">
	<!ENTITY ns_custom "http://ns.adobe.com/GenericCustomNamespace/1.0/">
	<!ENTITY ns_adobe_xpath "http://ns.adobe.com/XPath/1.0/">
]>
<svg version="1.1" id="Layer_1" xmlns:x="&ns_extend;" xmlns:i="&ns_ai;" xmlns:graph="&ns_graphs;"
	 xmlns="http://www.w3.org/2000/svg" xmlns:xlink="http://www.w3.org/1999/xlink" x="0px" y="0px" viewBox="0 0 841.9 595.3"
	 style="enable-background:new 0 0 841.9 595.3;" xml:space="preserve">
<style type="text/css">
	.st0{fill:#FFFFFF;}
</style>
<metadata>
	<sfw  xmlns="&ns_sfw;">
		<slices></slices>
		<sliceSourceBounds  bottomLeftOrigin="true" height="573.9" width="1105.9" x="-132" y="100.7"></sliceSourceBounds>
	</sfw>
</metadata>
<g>
	<g>
		<path class="st0" d="M420.9-79.2c-95.9,0-192.4,15.1-283.7,46.9C83-13,31.5,12.4-14.4,47.4c-33.8,26.5-65.1,56.9-87.2,93.6
			c-15.9,26.4-29.1,55.1-30.3,86.8c-1.1,26,7.8,46.9,22.9,67.5c23,28.7,49.1,54.4,75,80.4c25.9,25.9,51.8,51.9,79.6,75.8
			c17.9,14.7,36.4,26.3,58.5,33.6c20.1,6.9,41.4,9.1,62.2,9.5c21.5,0.4,43.2-1.6,64.7-5.7c24.3-4.4,48-11.2,71.7-17.9
			c38.6-10.9,78.8-17.2,118.2-17.2c39.4,0,79.6,6.4,118.2,17.2c23.7,6.7,47.4,13.4,71.7,17.9c21.4,4.2,43.3,6,64.7,5.7
			c20.9-0.3,41.9-2.7,62.2-9.5c22.1-7.1,40.6-18.9,58.5-33.6c27.7-24.1,53.7-49.9,79.6-75.8c25.9-25.9,52.3-51.5,75-80.4
			c15.1-20.6,23.8-41.6,22.9-67.5c-0.6-31.4-14.6-60.3-30.3-86.8c-22.9-36.8-53.3-67-87.2-93.6C810.7,12.3,758.9-13,704.9-32.3
			C613.5-64.2,516.9-79.2,420.9-79.2z M420.9-31.2c89.8,0.7,178.6,13.8,263.7,42.7c39.3,13.9,77.2,30.9,111.5,54.8
			c21.6,15.6,41.4,32.7,57.2,54.2c11.2,16,21.3,32.5,24.1,52.3c2.8,18.6-1.8,36.7-11.5,52.7c-18.3,31.1-40,59.7-61.5,88.6
			c-21.4,28.9-42.8,57.7-66.2,85.1c-12,13-24.3,24.3-40.2,32.1c-12.6,6.2-26.3,9.3-40.2,10.3c-15,1.5-30.1,0.5-45-1.9
			c-20.8-3.3-41-9.2-61.3-14.9c-42.7-12-87-18.9-130.6-18.9c-43.6,0-88,6.9-130.6,18.9c-20.2,5.7-40.5,11.4-61.3,14.9
			c-14.9,2.6-29.9,3.3-45,1.9c-13.9-1.1-27.6-4.2-40.2-10.3c-16-7.6-28.4-19.2-40.2-32.1c-23.4-27.4-44.8-56.2-66.2-85.1
			C16,285.2-5.8,256.6-24.1,225.5c-9.6-16.1-14.1-34.1-11.5-52.7c2.5-19.7,12.9-36.4,24.1-52.3C4.5,99,24.3,81.9,45.8,66.3
			c34.2-24,72.2-40.9,111.5-54.8C242.3-17.5,331.2-30.5,420.9-31.2L420.9-31.2z"/>
		<path class="st0" d="M420.9,276.2c-50.1,0-147-8.2-163.2-67.9c-7.9-29,14-55.9,36-72.3c36.4-27.2,83.9-37.5,127.3-37.5
			c43.6,0,90.7,10.4,127.3,37.5c22,16.3,43.6,43,36,72.3C568.5,268.3,470.2,276.5,420.9,276.2L420.9,276.2z M420.9,50.5
			c-72.5,1.3-148.3,20.1-204.2,68.7c-32.7,28.4-62.4,73.8-44.2,117.9c15.9,38.4,60.1,57.2,97.6,68.2c48.7,14.3,100.3,19,150.8,19
			c50.5,0,102.2-4.7,150.8-19c37.5-11,81.4-29.6,97.6-68.2c18.2-44.4-11.4-89.5-44-117.9C569.4,70.5,493.5,51.8,420.9,50.5
			L420.9,50.5z M802.1,143.5c-12,22.1-61.1,4.4-79.1-3.5c-18.1-7.9-63.2-31.3-55.7-55.5c8.2-26.5,63.2-10.2,81.3-3.1
			C767.2,90.4,815.3,119.3,802.1,143.5z"/>
	</g>
</g>
</svg>
