<!--Generator: Adobe Illustrator 24.0.2, SVG Export Plug-In . SVG Version: 6.00 Build 0)-->
<svg xmlns="http://www.w3.org/2000/svg" viewBox="0 0 841.9 595.3">
  <path fill="none" d="M188.4 65.1h465.1v465.1H188.4z"/>
  <path d="M310.5 539.5C535.1 539.5 658 353.4 658 192c0-5.3 0-10.5-.4-15.8 23.9-17.3 44.5-38.7 60.9-63.2-22.3 9.9-45.9 16.4-70.1 19.2 25.5-15.3 44.6-39.3 53.7-67.6-24 14.2-50.2 24.3-77.6 29.6-23.1-24.6-55.3-38.5-89.1-38.5-67.1 0-122.2 55.2-122.2 122.2 0 9.3 1.1 18.6 3.2 27.6-98.1-4.9-189.7-51.3-251.7-127.6-32.2 55.5-15.6 127.4 37.8 163-19.4-.6-38.4-5.8-55.4-15.3v1.5c0 57.9 41.2 108.3 98 119.7-18 4.9-36.8 5.6-55.1 2.1 16 49.6 62 83.8 114.1 84.8-43.2 34-96.7 52.4-151.7 52.4-9.7 0-19.4-.6-29.1-1.8 55.9 36.2 120.9 55.2 187.2 55.2" fill="#fff"/>
</svg>
