<!--Generator: Adobe Illustrator 24.0.2, SVG Export Plug-In . SVG Version: 6.00 Build 0)-->
<svg xmlns="http://www.w3.org/2000/svg" viewBox="0 0 841.9 595.3">
  <path d="M706.1 154.4c-6.8-25.6-27-45.8-52.6-52.6-46.4-12.4-232.6-12.4-232.6-12.4s-186.1 0-232.6 12.4c-25.6 6.8-45.8 27-52.6 52.6-12.4 46.4-12.4 143.3-12.4 143.3s0 96.9 12.4 143.3c6.8 25.6 27 45.8 52.6 52.6C234.8 506 420.9 506 420.9 506s186.1 0 232.6-12.4c25.6-6.8 45.8-27 52.6-52.6 12.4-46.4 12.4-143.3 12.4-143.3s.1-96.9-12.4-143.3zM361.4 386.9V208.3l154.7 89.3-154.7 89.3z" fill="#fff"/>
</svg>
